<mxfile host="app.diagrams.net" agent="Mozilla/5.0 (Windows NT 10.0; Win64; x64) AppleWebKit/537.36 (KHTML, like Gecko) Chrome/138.0.0.0 Safari/537.36" version="28.0.7">
  <diagram name="Pagina-1" id="eFKZ0yrn9S0by7YQh_z3">
    <mxGraphModel dx="2893" dy="1103" grid="1" gridSize="10" guides="1" tooltips="1" connect="1" arrows="1" fold="1" page="1" pageScale="1" pageWidth="827" pageHeight="1169" math="0" shadow="0">
      <root>
        <mxCell id="0" />
        <mxCell id="1" parent="0" />
        <mxCell id="C1vmBwHmCdw67k70RUgv-1" value="&amp;lt;I&amp;gt;&lt;br&gt;Use Case&lt;br&gt;Input Port" style="rounded=1;whiteSpace=wrap;html=1;fillColor=#dae8fc;strokeColor=#6c8ebf;fontStyle=1" vertex="1" parent="1">
          <mxGeometry x="320" y="400" width="120" height="60" as="geometry" />
        </mxCell>
        <mxCell id="C1vmBwHmCdw67k70RUgv-2" value="&lt;div&gt;&amp;lt;I&amp;gt;&lt;br&gt;&lt;/div&gt;Use Case&lt;br&gt;Output Port" style="rounded=1;whiteSpace=wrap;html=1;fillColor=#dae8fc;strokeColor=#6c8ebf;fontStyle=1" vertex="1" parent="1">
          <mxGeometry x="320" y="500" width="120" height="60" as="geometry" />
        </mxCell>
        <mxCell id="C1vmBwHmCdw67k70RUgv-3" value="Request Model" style="rounded=1;whiteSpace=wrap;html=1;fillColor=#f8cecc;strokeColor=#b85450;fontStyle=1" vertex="1" parent="1">
          <mxGeometry x="320" y="300" width="120" height="60" as="geometry" />
        </mxCell>
        <mxCell id="C1vmBwHmCdw67k70RUgv-4" value="&lt;div&gt;&lt;span style=&quot;background-color: transparent; color: light-dark(rgb(0, 0, 0), rgb(255, 255, 255));&quot;&gt;Response Model&lt;/span&gt;&lt;/div&gt;" style="rounded=1;whiteSpace=wrap;html=1;fillColor=#f8cecc;strokeColor=#b85450;fontStyle=1" vertex="1" parent="1">
          <mxGeometry x="320" y="600" width="120" height="60" as="geometry" />
        </mxCell>
        <mxCell id="C1vmBwHmCdw67k70RUgv-5" style="edgeStyle=orthogonalEdgeStyle;rounded=0;orthogonalLoop=1;jettySize=auto;html=1;entryX=0;entryY=0.5;entryDx=0;entryDy=0;endArrow=block;endFill=0;" edge="1" parent="1" source="C1vmBwHmCdw67k70RUgv-7" target="C1vmBwHmCdw67k70RUgv-2">
          <mxGeometry relative="1" as="geometry" />
        </mxCell>
        <mxCell id="C1vmBwHmCdw67k70RUgv-6" style="edgeStyle=orthogonalEdgeStyle;rounded=0;orthogonalLoop=1;jettySize=auto;html=1;entryX=0;entryY=0.5;entryDx=0;entryDy=0;exitX=0.75;exitY=1;exitDx=0;exitDy=0;" edge="1" parent="1" source="C1vmBwHmCdw67k70RUgv-7" target="C1vmBwHmCdw67k70RUgv-4">
          <mxGeometry relative="1" as="geometry" />
        </mxCell>
        <mxCell id="C1vmBwHmCdw67k70RUgv-70" style="edgeStyle=orthogonalEdgeStyle;rounded=0;orthogonalLoop=1;jettySize=auto;html=1;exitX=0.25;exitY=1;exitDx=0;exitDy=0;entryX=1;entryY=0.5;entryDx=0;entryDy=0;" edge="1" parent="1" source="C1vmBwHmCdw67k70RUgv-7" target="C1vmBwHmCdw67k70RUgv-67">
          <mxGeometry relative="1" as="geometry" />
        </mxCell>
        <mxCell id="C1vmBwHmCdw67k70RUgv-7" value="&lt;div&gt;&lt;span style=&quot;background-color: transparent; color: light-dark(rgb(0, 0, 0), rgb(255, 255, 255));&quot;&gt;Presenter&lt;/span&gt;&lt;/div&gt;" style="rounded=1;whiteSpace=wrap;html=1;fillColor=#d5e8d4;strokeColor=#82b366;fontStyle=1" vertex="1" parent="1">
          <mxGeometry x="120" y="500" width="120" height="60" as="geometry" />
        </mxCell>
        <mxCell id="C1vmBwHmCdw67k70RUgv-8" style="edgeStyle=orthogonalEdgeStyle;rounded=0;orthogonalLoop=1;jettySize=auto;html=1;entryX=0;entryY=0.5;entryDx=0;entryDy=0;" edge="1" parent="1" source="C1vmBwHmCdw67k70RUgv-10" target="C1vmBwHmCdw67k70RUgv-1">
          <mxGeometry relative="1" as="geometry" />
        </mxCell>
        <mxCell id="C1vmBwHmCdw67k70RUgv-9" style="edgeStyle=orthogonalEdgeStyle;rounded=0;orthogonalLoop=1;jettySize=auto;html=1;exitX=0.75;exitY=0;exitDx=0;exitDy=0;entryX=0;entryY=0.5;entryDx=0;entryDy=0;" edge="1" parent="1" source="C1vmBwHmCdw67k70RUgv-10" target="C1vmBwHmCdw67k70RUgv-3">
          <mxGeometry relative="1" as="geometry" />
        </mxCell>
        <mxCell id="C1vmBwHmCdw67k70RUgv-69" style="edgeStyle=orthogonalEdgeStyle;rounded=0;orthogonalLoop=1;jettySize=auto;html=1;exitX=0.25;exitY=0;exitDx=0;exitDy=0;entryX=1;entryY=0.5;entryDx=0;entryDy=0;" edge="1" parent="1" source="C1vmBwHmCdw67k70RUgv-10" target="C1vmBwHmCdw67k70RUgv-68">
          <mxGeometry relative="1" as="geometry" />
        </mxCell>
        <mxCell id="C1vmBwHmCdw67k70RUgv-10" value="&lt;div&gt;&lt;span style=&quot;background-color: transparent; color: light-dark(rgb(0, 0, 0), rgb(255, 255, 255));&quot;&gt;Controller&lt;/span&gt;&lt;/div&gt;" style="rounded=1;whiteSpace=wrap;html=1;fillColor=#d5e8d4;strokeColor=#82b366;fontStyle=1" vertex="1" parent="1">
          <mxGeometry x="120" y="400" width="120" height="60" as="geometry" />
        </mxCell>
        <mxCell id="C1vmBwHmCdw67k70RUgv-11" style="edgeStyle=orthogonalEdgeStyle;rounded=0;orthogonalLoop=1;jettySize=auto;html=1;exitX=0.5;exitY=0;exitDx=0;exitDy=0;entryX=1;entryY=0.5;entryDx=0;entryDy=0;" edge="1" parent="1" source="C1vmBwHmCdw67k70RUgv-16" target="C1vmBwHmCdw67k70RUgv-3">
          <mxGeometry relative="1" as="geometry" />
        </mxCell>
        <mxCell id="C1vmBwHmCdw67k70RUgv-12" style="edgeStyle=orthogonalEdgeStyle;rounded=0;orthogonalLoop=1;jettySize=auto;html=1;exitX=0.5;exitY=1;exitDx=0;exitDy=0;entryX=1;entryY=0.5;entryDx=0;entryDy=0;" edge="1" parent="1" source="C1vmBwHmCdw67k70RUgv-16" target="C1vmBwHmCdw67k70RUgv-4">
          <mxGeometry relative="1" as="geometry" />
        </mxCell>
        <mxCell id="C1vmBwHmCdw67k70RUgv-13" style="edgeStyle=orthogonalEdgeStyle;rounded=0;orthogonalLoop=1;jettySize=auto;html=1;exitX=0;exitY=0.75;exitDx=0;exitDy=0;entryX=1;entryY=0.5;entryDx=0;entryDy=0;" edge="1" parent="1" source="C1vmBwHmCdw67k70RUgv-16" target="C1vmBwHmCdw67k70RUgv-2">
          <mxGeometry relative="1" as="geometry" />
        </mxCell>
        <mxCell id="C1vmBwHmCdw67k70RUgv-14" style="edgeStyle=orthogonalEdgeStyle;rounded=0;orthogonalLoop=1;jettySize=auto;html=1;exitX=0;exitY=0.25;exitDx=0;exitDy=0;entryX=1;entryY=0.5;entryDx=0;entryDy=0;endArrow=block;endFill=0;" edge="1" parent="1" source="C1vmBwHmCdw67k70RUgv-16" target="C1vmBwHmCdw67k70RUgv-1">
          <mxGeometry relative="1" as="geometry" />
        </mxCell>
        <mxCell id="C1vmBwHmCdw67k70RUgv-15" style="edgeStyle=orthogonalEdgeStyle;rounded=0;orthogonalLoop=1;jettySize=auto;html=1;exitX=1;exitY=0.5;exitDx=0;exitDy=0;entryX=0;entryY=0.5;entryDx=0;entryDy=0;" edge="1" parent="1" source="C1vmBwHmCdw67k70RUgv-16" target="C1vmBwHmCdw67k70RUgv-21">
          <mxGeometry relative="1" as="geometry" />
        </mxCell>
        <mxCell id="C1vmBwHmCdw67k70RUgv-16" value="&lt;div&gt;&lt;span style=&quot;background-color: transparent; color: light-dark(rgb(0, 0, 0), rgb(255, 255, 255));&quot;&gt;Use Case&lt;/span&gt;&lt;/div&gt;" style="rounded=1;whiteSpace=wrap;html=1;fillColor=#d5e8d4;strokeColor=#82b366;fontStyle=1" vertex="1" parent="1">
          <mxGeometry x="480" y="380" width="120" height="200" as="geometry" />
        </mxCell>
        <mxCell id="C1vmBwHmCdw67k70RUgv-17" value="" style="shape=link;html=1;rounded=0;" edge="1" parent="1">
          <mxGeometry width="100" relative="1" as="geometry">
            <mxPoint x="280" y="720" as="sourcePoint" />
            <mxPoint x="280" y="200" as="targetPoint" />
          </mxGeometry>
        </mxCell>
        <mxCell id="C1vmBwHmCdw67k70RUgv-19" value="APPLICATION" style="text;html=1;align=center;verticalAlign=middle;whiteSpace=wrap;rounded=0;fontStyle=1" vertex="1" parent="1">
          <mxGeometry x="280" y="210" width="360" height="30" as="geometry" />
        </mxCell>
        <mxCell id="C1vmBwHmCdw67k70RUgv-20" value="&amp;lt;I&amp;gt;&lt;br&gt;Use Case&lt;div&gt;Service Port&lt;/div&gt;" style="rounded=1;whiteSpace=wrap;html=1;fillColor=#dae8fc;strokeColor=#6c8ebf;fontStyle=1" vertex="1" parent="1">
          <mxGeometry x="320" y="1080" width="120" height="60" as="geometry" />
        </mxCell>
        <mxCell id="C1vmBwHmCdw67k70RUgv-21" value="Entity" style="rounded=1;whiteSpace=wrap;html=1;fillColor=#f8cecc;strokeColor=#b85450;fontStyle=1" vertex="1" parent="1">
          <mxGeometry x="680" y="380" width="120" height="200" as="geometry" />
        </mxCell>
        <mxCell id="C1vmBwHmCdw67k70RUgv-22" value="" style="shape=link;html=1;rounded=0;" edge="1" parent="1">
          <mxGeometry width="100" relative="1" as="geometry">
            <mxPoint x="841" y="720" as="sourcePoint" />
            <mxPoint x="841" y="200" as="targetPoint" />
          </mxGeometry>
        </mxCell>
        <mxCell id="C1vmBwHmCdw67k70RUgv-23" value="" style="shape=link;html=1;rounded=0;" edge="1" parent="1">
          <mxGeometry width="100" relative="1" as="geometry">
            <mxPoint x="-81" y="720" as="sourcePoint" />
            <mxPoint x="-81" y="200" as="targetPoint" />
          </mxGeometry>
        </mxCell>
        <mxCell id="C1vmBwHmCdw67k70RUgv-24" value="FRAMEWORKS" style="text;html=1;align=center;verticalAlign=middle;whiteSpace=wrap;rounded=0;fontStyle=1" vertex="1" parent="1">
          <mxGeometry x="-281" y="210" width="200" height="30" as="geometry" />
        </mxCell>
        <mxCell id="C1vmBwHmCdw67k70RUgv-25" value="" style="shape=link;html=1;rounded=0;" edge="1" parent="1">
          <mxGeometry width="100" relative="1" as="geometry">
            <mxPoint x="-281" y="720" as="sourcePoint" />
            <mxPoint x="-281" y="200" as="targetPoint" />
          </mxGeometry>
        </mxCell>
        <mxCell id="C1vmBwHmCdw67k70RUgv-26" value="" style="shape=link;html=1;rounded=0;" edge="1" parent="1">
          <mxGeometry width="100" relative="1" as="geometry">
            <mxPoint x="640" y="720" as="sourcePoint" />
            <mxPoint x="640" y="200" as="targetPoint" />
          </mxGeometry>
        </mxCell>
        <mxCell id="C1vmBwHmCdw67k70RUgv-27" value="DOMAIN" style="text;html=1;align=center;verticalAlign=middle;whiteSpace=wrap;rounded=0;fontStyle=1" vertex="1" parent="1">
          <mxGeometry x="640" y="210" width="200" height="30" as="geometry" />
        </mxCell>
        <mxCell id="C1vmBwHmCdw67k70RUgv-28" value="Request Model" style="rounded=1;whiteSpace=wrap;html=1;fillColor=#f8cecc;strokeColor=#b85450;fontStyle=1" vertex="1" parent="1">
          <mxGeometry x="320" y="960" width="120" height="60" as="geometry" />
        </mxCell>
        <mxCell id="C1vmBwHmCdw67k70RUgv-29" value="&lt;div&gt;&lt;span style=&quot;background-color: transparent; color: light-dark(rgb(0, 0, 0), rgb(255, 255, 255));&quot;&gt;Response Model&lt;/span&gt;&lt;/div&gt;" style="rounded=1;whiteSpace=wrap;html=1;fillColor=#f8cecc;strokeColor=#b85450;fontStyle=1" vertex="1" parent="1">
          <mxGeometry x="320" y="1200" width="120" height="60" as="geometry" />
        </mxCell>
        <mxCell id="C1vmBwHmCdw67k70RUgv-30" style="edgeStyle=orthogonalEdgeStyle;rounded=0;orthogonalLoop=1;jettySize=auto;html=1;exitX=0.5;exitY=0;exitDx=0;exitDy=0;entryX=1;entryY=0.5;entryDx=0;entryDy=0;" edge="1" parent="1" source="C1vmBwHmCdw67k70RUgv-34" target="C1vmBwHmCdw67k70RUgv-28">
          <mxGeometry relative="1" as="geometry" />
        </mxCell>
        <mxCell id="C1vmBwHmCdw67k70RUgv-31" style="edgeStyle=orthogonalEdgeStyle;rounded=0;orthogonalLoop=1;jettySize=auto;html=1;exitX=0.5;exitY=1;exitDx=0;exitDy=0;entryX=1;entryY=0.5;entryDx=0;entryDy=0;" edge="1" parent="1" source="C1vmBwHmCdw67k70RUgv-34" target="C1vmBwHmCdw67k70RUgv-29">
          <mxGeometry relative="1" as="geometry" />
        </mxCell>
        <mxCell id="C1vmBwHmCdw67k70RUgv-32" style="edgeStyle=orthogonalEdgeStyle;rounded=0;orthogonalLoop=1;jettySize=auto;html=1;exitX=0;exitY=0.5;exitDx=0;exitDy=0;" edge="1" parent="1" source="C1vmBwHmCdw67k70RUgv-34" target="C1vmBwHmCdw67k70RUgv-20">
          <mxGeometry relative="1" as="geometry">
            <mxPoint x="440" y="1160" as="targetPoint" />
          </mxGeometry>
        </mxCell>
        <mxCell id="C1vmBwHmCdw67k70RUgv-33" style="edgeStyle=orthogonalEdgeStyle;rounded=0;orthogonalLoop=1;jettySize=auto;html=1;exitX=1;exitY=0.5;exitDx=0;exitDy=0;entryX=0;entryY=0.5;entryDx=0;entryDy=0;" edge="1" parent="1" source="C1vmBwHmCdw67k70RUgv-34" target="C1vmBwHmCdw67k70RUgv-38">
          <mxGeometry relative="1" as="geometry" />
        </mxCell>
        <mxCell id="C1vmBwHmCdw67k70RUgv-34" value="&lt;div&gt;&lt;span style=&quot;background-color: transparent; color: light-dark(rgb(0, 0, 0), rgb(255, 255, 255));&quot;&gt;Use Case&lt;/span&gt;&lt;/div&gt;" style="rounded=1;whiteSpace=wrap;html=1;fillColor=#d5e8d4;strokeColor=#82b366;fontStyle=1" vertex="1" parent="1">
          <mxGeometry x="480" y="1010" width="120" height="200" as="geometry" />
        </mxCell>
        <mxCell id="C1vmBwHmCdw67k70RUgv-35" value="" style="shape=link;html=1;rounded=0;" edge="1" parent="1">
          <mxGeometry width="100" relative="1" as="geometry">
            <mxPoint x="280" y="1350" as="sourcePoint" />
            <mxPoint x="280" y="830" as="targetPoint" />
          </mxGeometry>
        </mxCell>
        <mxCell id="C1vmBwHmCdw67k70RUgv-36" value="ADAPTERS" style="text;html=1;align=center;verticalAlign=middle;whiteSpace=wrap;rounded=0;fontStyle=1" vertex="1" parent="1">
          <mxGeometry x="-80" y="840" width="360" height="30" as="geometry" />
        </mxCell>
        <mxCell id="C1vmBwHmCdw67k70RUgv-37" value="APPLICATION" style="text;html=1;align=center;verticalAlign=middle;whiteSpace=wrap;rounded=0;fontStyle=1" vertex="1" parent="1">
          <mxGeometry x="280" y="840" width="360" height="30" as="geometry" />
        </mxCell>
        <mxCell id="C1vmBwHmCdw67k70RUgv-38" value="Entity" style="rounded=1;whiteSpace=wrap;html=1;fillColor=#f8cecc;strokeColor=#b85450;fontStyle=1" vertex="1" parent="1">
          <mxGeometry x="680" y="1010" width="120" height="200" as="geometry" />
        </mxCell>
        <mxCell id="C1vmBwHmCdw67k70RUgv-39" value="" style="shape=link;html=1;rounded=0;" edge="1" parent="1">
          <mxGeometry width="100" relative="1" as="geometry">
            <mxPoint x="841" y="1350" as="sourcePoint" />
            <mxPoint x="841" y="830" as="targetPoint" />
          </mxGeometry>
        </mxCell>
        <mxCell id="C1vmBwHmCdw67k70RUgv-40" value="" style="shape=link;html=1;rounded=0;" edge="1" parent="1">
          <mxGeometry width="100" relative="1" as="geometry">
            <mxPoint x="-80.87" y="1350" as="sourcePoint" />
            <mxPoint x="-80.87" y="830" as="targetPoint" />
          </mxGeometry>
        </mxCell>
        <mxCell id="C1vmBwHmCdw67k70RUgv-41" value="" style="shape=link;html=1;rounded=0;" edge="1" parent="1">
          <mxGeometry width="100" relative="1" as="geometry">
            <mxPoint x="640" y="1350" as="sourcePoint" />
            <mxPoint x="640" y="830" as="targetPoint" />
          </mxGeometry>
        </mxCell>
        <mxCell id="C1vmBwHmCdw67k70RUgv-42" value="DOMAIN" style="text;html=1;align=center;verticalAlign=middle;whiteSpace=wrap;rounded=0;fontStyle=1" vertex="1" parent="1">
          <mxGeometry x="640" y="840" width="200" height="30" as="geometry" />
        </mxCell>
        <mxCell id="C1vmBwHmCdw67k70RUgv-43" style="edgeStyle=orthogonalEdgeStyle;rounded=0;orthogonalLoop=1;jettySize=auto;html=1;entryX=0;entryY=0.5;entryDx=0;entryDy=0;exitX=0.75;exitY=0;exitDx=0;exitDy=0;" edge="1" parent="1" source="C1vmBwHmCdw67k70RUgv-45" target="C1vmBwHmCdw67k70RUgv-10">
          <mxGeometry relative="1" as="geometry" />
        </mxCell>
        <mxCell id="C1vmBwHmCdw67k70RUgv-44" style="edgeStyle=orthogonalEdgeStyle;rounded=0;orthogonalLoop=1;jettySize=auto;html=1;entryX=0;entryY=0.5;entryDx=0;entryDy=0;exitX=0.75;exitY=1;exitDx=0;exitDy=0;" edge="1" parent="1" source="C1vmBwHmCdw67k70RUgv-45" target="C1vmBwHmCdw67k70RUgv-7">
          <mxGeometry relative="1" as="geometry" />
        </mxCell>
        <mxCell id="C1vmBwHmCdw67k70RUgv-71" style="edgeStyle=orthogonalEdgeStyle;rounded=0;orthogonalLoop=1;jettySize=auto;html=1;exitX=0.25;exitY=1;exitDx=0;exitDy=0;entryX=0;entryY=0.5;entryDx=0;entryDy=0;" edge="1" parent="1" source="C1vmBwHmCdw67k70RUgv-45" target="C1vmBwHmCdw67k70RUgv-67">
          <mxGeometry relative="1" as="geometry" />
        </mxCell>
        <mxCell id="C1vmBwHmCdw67k70RUgv-72" style="edgeStyle=orthogonalEdgeStyle;rounded=0;orthogonalLoop=1;jettySize=auto;html=1;exitX=0.25;exitY=0;exitDx=0;exitDy=0;entryX=0;entryY=0.5;entryDx=0;entryDy=0;" edge="1" parent="1" source="C1vmBwHmCdw67k70RUgv-45" target="C1vmBwHmCdw67k70RUgv-68">
          <mxGeometry relative="1" as="geometry" />
        </mxCell>
        <mxCell id="C1vmBwHmCdw67k70RUgv-45" value="&lt;div&gt;UI&lt;/div&gt;" style="rounded=1;whiteSpace=wrap;html=1;fillColor=#d5e8d4;strokeColor=#82b366;fontStyle=1" vertex="1" parent="1">
          <mxGeometry x="-241" y="450" width="120" height="60" as="geometry" />
        </mxCell>
        <mxCell id="C1vmBwHmCdw67k70RUgv-46" value="FRAMEWORKS" style="text;html=1;align=center;verticalAlign=middle;whiteSpace=wrap;rounded=0;fontStyle=1" vertex="1" parent="1">
          <mxGeometry x="-280.87" y="840" width="200" height="30" as="geometry" />
        </mxCell>
        <mxCell id="C1vmBwHmCdw67k70RUgv-47" value="" style="shape=link;html=1;rounded=0;" edge="1" parent="1">
          <mxGeometry width="100" relative="1" as="geometry">
            <mxPoint x="-280.87" y="1350" as="sourcePoint" />
            <mxPoint x="-280.87" y="830" as="targetPoint" />
          </mxGeometry>
        </mxCell>
        <mxCell id="C1vmBwHmCdw67k70RUgv-48" style="edgeStyle=orthogonalEdgeStyle;rounded=0;orthogonalLoop=1;jettySize=auto;html=1;entryX=0;entryY=0.5;entryDx=0;entryDy=0;endArrow=block;endFill=0;" edge="1" parent="1" source="C1vmBwHmCdw67k70RUgv-52" target="C1vmBwHmCdw67k70RUgv-20">
          <mxGeometry relative="1" as="geometry" />
        </mxCell>
        <mxCell id="C1vmBwHmCdw67k70RUgv-49" style="edgeStyle=orthogonalEdgeStyle;rounded=0;orthogonalLoop=1;jettySize=auto;html=1;exitX=0.75;exitY=0;exitDx=0;exitDy=0;entryX=0;entryY=0.5;entryDx=0;entryDy=0;" edge="1" parent="1" source="C1vmBwHmCdw67k70RUgv-52" target="C1vmBwHmCdw67k70RUgv-28">
          <mxGeometry relative="1" as="geometry" />
        </mxCell>
        <mxCell id="C1vmBwHmCdw67k70RUgv-50" style="edgeStyle=orthogonalEdgeStyle;rounded=0;orthogonalLoop=1;jettySize=auto;html=1;exitX=0.75;exitY=1;exitDx=0;exitDy=0;entryX=0;entryY=0.5;entryDx=0;entryDy=0;" edge="1" parent="1" source="C1vmBwHmCdw67k70RUgv-52" target="C1vmBwHmCdw67k70RUgv-29">
          <mxGeometry relative="1" as="geometry" />
        </mxCell>
        <mxCell id="C1vmBwHmCdw67k70RUgv-51" style="edgeStyle=orthogonalEdgeStyle;rounded=0;orthogonalLoop=1;jettySize=auto;html=1;exitX=0;exitY=0.5;exitDx=0;exitDy=0;entryX=1;entryY=0.5;entryDx=0;entryDy=0;" edge="1" parent="1" source="C1vmBwHmCdw67k70RUgv-52" target="C1vmBwHmCdw67k70RUgv-56">
          <mxGeometry relative="1" as="geometry" />
        </mxCell>
        <mxCell id="C1vmBwHmCdw67k70RUgv-61" style="edgeStyle=orthogonalEdgeStyle;rounded=0;orthogonalLoop=1;jettySize=auto;html=1;exitX=0.25;exitY=1;exitDx=0;exitDy=0;entryX=1;entryY=0.5;entryDx=0;entryDy=0;" edge="1" parent="1" source="C1vmBwHmCdw67k70RUgv-52" target="C1vmBwHmCdw67k70RUgv-60">
          <mxGeometry relative="1" as="geometry" />
        </mxCell>
        <mxCell id="C1vmBwHmCdw67k70RUgv-62" style="edgeStyle=orthogonalEdgeStyle;rounded=0;orthogonalLoop=1;jettySize=auto;html=1;exitX=0.25;exitY=0;exitDx=0;exitDy=0;entryX=1;entryY=0.5;entryDx=0;entryDy=0;" edge="1" parent="1" source="C1vmBwHmCdw67k70RUgv-52" target="C1vmBwHmCdw67k70RUgv-59">
          <mxGeometry relative="1" as="geometry" />
        </mxCell>
        <mxCell id="C1vmBwHmCdw67k70RUgv-52" value="&lt;div&gt;&lt;span style=&quot;background-color: transparent; color: light-dark(rgb(0, 0, 0), rgb(255, 255, 255));&quot;&gt;Gateway /&lt;/span&gt;&lt;/div&gt;&lt;div&gt;&lt;span style=&quot;background-color: transparent; color: light-dark(rgb(0, 0, 0), rgb(255, 255, 255));&quot;&gt;Repository&lt;/span&gt;&lt;/div&gt;" style="rounded=1;whiteSpace=wrap;html=1;fillColor=#d5e8d4;strokeColor=#82b366;fontStyle=1" vertex="1" parent="1">
          <mxGeometry x="120" y="1080" width="120" height="60" as="geometry" />
        </mxCell>
        <mxCell id="C1vmBwHmCdw67k70RUgv-53" style="edgeStyle=orthogonalEdgeStyle;rounded=0;orthogonalLoop=1;jettySize=auto;html=1;exitX=0.75;exitY=1;exitDx=0;exitDy=0;entryX=0.5;entryY=1;entryDx=0;entryDy=0;dashed=1;endArrow=block;endFill=0;" edge="1" parent="1" source="C1vmBwHmCdw67k70RUgv-54" target="C1vmBwHmCdw67k70RUgv-20">
          <mxGeometry relative="1" as="geometry">
            <Array as="points">
              <mxPoint x="-151" y="1170" />
              <mxPoint x="380" y="1170" />
            </Array>
          </mxGeometry>
        </mxCell>
        <mxCell id="C1vmBwHmCdw67k70RUgv-65" style="edgeStyle=orthogonalEdgeStyle;rounded=0;orthogonalLoop=1;jettySize=auto;html=1;exitX=0.5;exitY=0;exitDx=0;exitDy=0;entryX=0;entryY=0.5;entryDx=0;entryDy=0;" edge="1" parent="1" source="C1vmBwHmCdw67k70RUgv-54" target="C1vmBwHmCdw67k70RUgv-59">
          <mxGeometry relative="1" as="geometry" />
        </mxCell>
        <mxCell id="C1vmBwHmCdw67k70RUgv-66" style="edgeStyle=orthogonalEdgeStyle;rounded=0;orthogonalLoop=1;jettySize=auto;html=1;exitX=0.5;exitY=1;exitDx=0;exitDy=0;entryX=0;entryY=0.5;entryDx=0;entryDy=0;" edge="1" parent="1" source="C1vmBwHmCdw67k70RUgv-54" target="C1vmBwHmCdw67k70RUgv-60">
          <mxGeometry relative="1" as="geometry" />
        </mxCell>
        <mxCell id="C1vmBwHmCdw67k70RUgv-54" value="&lt;div&gt;&lt;span style=&quot;background-color: transparent; color: light-dark(rgb(0, 0, 0), rgb(255, 255, 255));&quot;&gt;Library&lt;/span&gt;&lt;/div&gt;" style="rounded=1;whiteSpace=wrap;html=1;fillColor=#d5e8d4;strokeColor=#82b366;fontStyle=1" vertex="1" parent="1">
          <mxGeometry x="-240.87" y="1080" width="120" height="60" as="geometry" />
        </mxCell>
        <mxCell id="C1vmBwHmCdw67k70RUgv-55" value="" style="edgeStyle=orthogonalEdgeStyle;rounded=0;orthogonalLoop=1;jettySize=auto;html=1;entryX=0;entryY=0.5;entryDx=0;entryDy=0;endArrow=block;endFill=0;" edge="1" parent="1" source="C1vmBwHmCdw67k70RUgv-54" target="C1vmBwHmCdw67k70RUgv-56">
          <mxGeometry relative="1" as="geometry">
            <mxPoint x="-80" y="1110" as="sourcePoint" />
            <mxPoint x="120" y="1110" as="targetPoint" />
          </mxGeometry>
        </mxCell>
        <mxCell id="C1vmBwHmCdw67k70RUgv-56" value="&amp;lt;I&amp;gt;&lt;br&gt;&lt;div&gt;Gateway / Repository&amp;nbsp;&lt;/div&gt;&lt;div&gt;Adapter&lt;/div&gt;" style="rounded=1;whiteSpace=wrap;html=1;fillColor=#dae8fc;strokeColor=#6c8ebf;fontStyle=1" vertex="1" parent="1">
          <mxGeometry x="-40" y="1080" width="120" height="60" as="geometry" />
        </mxCell>
        <mxCell id="C1vmBwHmCdw67k70RUgv-57" value="IF simple&amp;nbsp;&lt;span style=&quot;background-color: transparent; color: light-dark(rgb(0, 0, 0), rgb(255, 255, 255));&quot;&gt;service&lt;/span&gt;" style="ellipse;whiteSpace=wrap;html=1;dashed=1;" vertex="1" parent="1">
          <mxGeometry x="-120.87" y="1150" width="120" height="40" as="geometry" />
        </mxCell>
        <mxCell id="C1vmBwHmCdw67k70RUgv-59" value="Request Model" style="rounded=1;whiteSpace=wrap;html=1;fillColor=#f8cecc;strokeColor=#b85450;fontStyle=1" vertex="1" parent="1">
          <mxGeometry x="-40" y="960" width="120" height="60" as="geometry" />
        </mxCell>
        <mxCell id="C1vmBwHmCdw67k70RUgv-60" value="&lt;div&gt;&lt;span style=&quot;background-color: transparent; color: light-dark(rgb(0, 0, 0), rgb(255, 255, 255));&quot;&gt;Response Model&lt;/span&gt;&lt;/div&gt;" style="rounded=1;whiteSpace=wrap;html=1;fillColor=#f8cecc;strokeColor=#b85450;fontStyle=1" vertex="1" parent="1">
          <mxGeometry x="-40" y="1200" width="120" height="60" as="geometry" />
        </mxCell>
        <mxCell id="C1vmBwHmCdw67k70RUgv-67" value="&lt;div&gt;&lt;span style=&quot;background-color: transparent; color: light-dark(rgb(0, 0, 0), rgb(255, 255, 255));&quot;&gt;Presentable Model&lt;/span&gt;&lt;/div&gt;" style="rounded=1;whiteSpace=wrap;html=1;fillColor=#f8cecc;strokeColor=#b85450;fontStyle=1" vertex="1" parent="1">
          <mxGeometry x="-40" y="600" width="120" height="60" as="geometry" />
        </mxCell>
        <mxCell id="C1vmBwHmCdw67k70RUgv-68" value="Request Model" style="rounded=1;whiteSpace=wrap;html=1;fillColor=#f8cecc;strokeColor=#b85450;fontStyle=1" vertex="1" parent="1">
          <mxGeometry x="-40" y="300" width="120" height="60" as="geometry" />
        </mxCell>
        <mxCell id="C1vmBwHmCdw67k70RUgv-73" value="ADAPTERS" style="text;html=1;align=center;verticalAlign=middle;whiteSpace=wrap;rounded=0;fontStyle=1" vertex="1" parent="1">
          <mxGeometry x="-80" y="210" width="360" height="30" as="geometry" />
        </mxCell>
      </root>
    </mxGraphModel>
  </diagram>
</mxfile>
